[img]http://www.shotpix.com/images/79148785371493102097.jpg[/img]

 
http://www.imdb.com/title/tt1381404/


Plot: A thriller centered on a former Weather Underground activist who goes on the run from a journalist who has discovered his identity. 



Director:
 Robert Redford 

Writers:
 Lem Dobbs (screenplay), Neil Gordon (based on the novel by) 

Stars:
 Robert Redford, Nick Nolte, Stanley Tucci

Genres:
  Thriller 

Country:
 USA 

Language:
 English 


Thanks: CM8


Format                                   : AVI
Format/Info                              : Audio Video Interleave
File size                                : 703 MiB
Duration                                 : 1h 57mn
Overall bit rate                         : 839 Kbps
Writing application                      : Lavf54.59.103

Video
ID                                       : 0
Format                                   : MPEG-4 Visual
Format profile                           : Simple@L3
Format settings, BVOP                    : No
Format settings, QPel                    : No
Format settings, GMC                     : No warppoints
Format settings, Matrix                  : Default (H.263)
Codec ID                                 : XVID
Codec ID/Hint                            : XviD
Duration                                 : 1h 57mn
Bit rate                                 : 700 Kbps
Width                                    : 640 pixels
Height                                   : 272 pixels
Display aspect ratio                     : 2.35:1
Frame rate                               : 25.000 fps
Color space                              : YUV
Chroma subsampling                       : 4:2:0
Bit depth                                : 8 bits
Scan type                                : Progressive
Compression mode                         : Lossy
Bits/(Pixel*Frame)                       : 0.161
Stream size                              : 587 MiB (83%)
Writing library                          : XviD 64

Audio
ID                                       : 1
Format                                   : AC-3
Format/Info                              : Audio Coding 3
Mode extension                           : CM (complete main)
Format settings, Endianness              : Big
Codec ID                                 : 2000
Duration                                 : 1h 57mn
Bit rate mode                            : Constant
Bit rate                                 : 128 Kbps
Channel(s)                               : 2 channels
Channel positions                        : Front: L R
Sampling rate                            : 48.0 KHz
Bit depth                                : 16 bits
Compression mode                         : Lossy
Stream size                              : 107 MiB (15%)
Alignment                                : Aligned on interleaves
Interleave, duration                     : 32 ms (0.80 video frame)



 
http://www.shotpix.com/images/03310082517275980786.png 
http://www.shotpix.com/images/98492426064916254658.png 
http://www.shotpix.com/images/42124478653881666209.png 
http://www.shotpix.com/images/46451822342924122731.png 
http://www.shotpix.com/images/36013212332818263220.png